<svg width="860" height="330" viewBox="0 0 860 330" xmlns="http://www.w3.org/2000/svg">
  
  <defs>
    <filter id="shadow" x="-5%" y="-5%" width="120%" height="120%">
      <feDropShadow dx="0" dy="12" stdDeviation="16" flood-color="#000000" flood-opacity="0.6"/>
    </filter>

    <linearGradient id="neon-cyan" x1="0%" y1="0%" x2="100%" y2="100%">
      <stop offset="0%" stop-color="#00f2fe" />
      <stop offset="100%" stop-color="#4facfe" />
    </linearGradient>

    <linearGradient id="term-bg" x1="0%" y1="0%" x2="100%" y2="100%">
      <stop offset="0%" stop-color="#0d1117" />
      <stop offset="100%" stop-color="#161b22" />
    </linearGradient>
  </defs>

  <rect width="860" height="330" rx="0" fill="#04080f"/>

  <rect x="38" y="20" width="784" height="290" rx="12" fill="url(#term-bg)" stroke="#30363d" stroke-width="1.5" filter="url(#shadow)"/>
  
  <path d="M 38 32 Q 38 20 50 20 L 810 20 Q 822 20 822 32 L 822 52 L 38 52 Z" fill="#0d1117" stroke="#30363d" stroke-width="1.5"/>
  <line x1="38" y1="52" x2="822" y2="52" stroke="#30363d" stroke-width="1.5"/>

  <circle cx="62" cy="36" r="6" fill="#ff5f56" stroke="#e0443e" stroke-width="0.5"/>
  <circle cx="82" cy="36" r="6" fill="#ffbd2e" stroke="#dea123" stroke-width="0.5"/>
  <circle cx="102" cy="36" r="6" fill="#27c93f" stroke="#1aab29" stroke-width="0.5"/>
  
  <rect x="360" y="25" width="140" height="27" rx="6" fill="#161b22" stroke="#30363d" stroke-width="1"/>
  <text x="430" y="43" text-anchor="middle" font-family="ui-monospace, SFMono-Regular, 'Fira Code', 'JetBrains Mono', Menlo, monospace" font-size="12" fill="#8b949e" letter-spacing="0.5">anurag_profile.py</text>

  <line x1="640" y1="53" x2="640" y2="309" stroke="#30363d" stroke-width="1.5"/>
  
  <rect x="641" y="53" width="180" height="256" fill="#ffffff" opacity="0.02"/>

  <g font-family="ui-monospace, SFMono-Regular, 'Fira Code', 'JetBrains Mono', Consolas, monospace" font-size="13">
    
    <text x="70" y="85" fill="#8b949e">&gt;&gt;&gt;</text>
    <text x="105" y="85" fill="#ff7b72">import</text>
    <text x="160" y="85" fill="#c9d1d9">anurag_profile</text>
    <text x="70" y="110" fill="#f0f6fc">{</text>

    <text x="186" y="135" text-anchor="end" fill="#79c0ff">"name"</text>
    <text x="195" y="135" fill="#8b949e">:</text>
    <text x="215" y="135" fill="#a5d6ff">"Anurag Aditya"</text>

    <text x="186" y="160" text-anchor="end" fill="#79c0ff">"education"</text>
    <text x="195" y="160" fill="#8b949e">:</text>
    <text x="215" y="160" fill="#a5d6ff">"B.Tech IT  ·  Final Year"</text>

    <text x="186" y="185" text-anchor="end" fill="#79c0ff">"target"</text>
    <text x="195" y="185" fill="#8b949e">:</text>
    <text x="215" y="185" fill="#a5d6ff">"Data Analyst  |  BI &amp; Strategy"</text>

    <text x="186" y="210" text-anchor="end" fill="#79c0ff">"status"</text>
    <text x="195" y="210" fill="#8b949e">:</text>
    <circle cx="222" cy="205" r="4.5" fill="#3fb950"/>
    <circle cx="222" cy="205" r="4.5" fill="#3fb950" opacity="0.4">
      <animate attributeName="r" values="4.5; 8; 4.5" dur="2s" repeatCount="indefinite"/>
    </circle>
    <text x="235" y="210" fill="#3fb950">"Seeking Internships / Job"</text>

    <text x="186" y="235" text-anchor="end" fill="#79c0ff">"skills"</text>
    <text x="195" y="235" fill="#8b949e">:</text>
    <text x="215" y="235" fill="#f0f6fc">[</text>
    
    <rect x="225" y="221" width="46" height="20" rx="6" fill="#1f6feb" fill-opacity="0.15" stroke="#1f6feb" stroke-opacity="0.4" stroke-width="1"/>
    <text x="248" y="235" text-anchor="middle" font-size="11" fill="#79c0ff">EDA</text>
    
    <rect x="278" y="221" width="46" height="20" rx="6" fill="#1f6feb" fill-opacity="0.15" stroke="#1f6feb" stroke-opacity="0.4" stroke-width="1"/>
    <text x="301" y="235" text-anchor="middle" font-size="11" fill="#79c0ff">SQL</text>
    
    <rect x="331" y="221" width="76" height="20" rx="6" fill="#1f6feb" fill-opacity="0.15" stroke="#1f6feb" stroke-opacity="0.4" stroke-width="1"/>
    <text x="369" y="235" text-anchor="middle" font-size="11" fill="#79c0ff">Power BI</text>
    
    <rect x="414" y="221" width="108" height="20" rx="6" fill="#1f6feb" fill-opacity="0.15" stroke="#1f6feb" stroke-opacity="0.4" stroke-width="1"/>
    <text x="468" y="235" text-anchor="middle" font-size="11" fill="#79c0ff">Storytelling</text>

    <text x="528" y="235" fill="#f0f6fc">]</text>

    <text x="186" y="260" text-anchor="end" fill="#79c0ff">"milestones"</text>
    <text x="195" y="260" fill="#8b949e">:</text>
    
    <rect x="215" y="246" width="180" height="20" rx="4" fill="#d29922" fill-opacity="0.1" stroke="#d29922" stroke-opacity="0.3" stroke-width="1"/>
    <text x="223" y="260" font-size="11" fill="#e3b341">&#9733;</text>
    <text x="238" y="260" font-size="11" fill="#e3b341">NEC '25  ·  IIT Bombay</text>
    
    <rect x="402" y="246" width="205" height="20" rx="4" fill="#d29922" fill-opacity="0.1" stroke="#d29922" stroke-opacity="0.3" stroke-width="1"/>
    <text x="410" y="260" font-size="11" fill="#e3b341">&#9733;</text>
    <text x="425" y="260" font-size="11" fill="#e3b341">SIH '24  ·  IIT Bhubaneswar</text>

    <text x="70" y="290" fill="#f0f6fc">}</text>
    
    <rect x="80" y="278" width="8" height="15" fill="#79c0ff">
      <animate attributeName="opacity" values="1;0;1" dur="1s" repeatCount="indefinite"/>
    </rect>
  </g>

  <line x1="660" y1="135" x2="800" y2="135" stroke="#30363d" stroke-width="1"/>
  <line x1="660" y1="220" x2="800" y2="220" stroke="#30363d" stroke-width="1"/>

  <g font-family="-apple-system, BlinkMacSystemFont, 'Segoe UI', Roboto, Helvetica, Arial, sans-serif">
    <text x="732" y="105" text-anchor="middle" font-size="38" font-weight="800" fill="url(#neon-cyan)">02</text>
    <text x="732" y="122" text-anchor="middle" font-size="10" font-weight="600" fill="#8b949e" letter-spacing="1.5">NATIONAL FINALIST</text>

    <text x="732" y="190" text-anchor="middle" font-size="38" font-weight="800" fill="url(#neon-cyan)">14+</text>
    <text x="732" y="207" text-anchor="middle" font-size="10" font-weight="600" fill="#8b949e" letter-spacing="1.5">CERTIFICATIONS</text>

    <text x="732" y="275" text-anchor="middle" font-size="38" font-weight="800" fill="url(#neon-cyan)">04</text>
    <text x="732" y="292" text-anchor="middle" font-size="10" font-weight="600" fill="#8b949e" letter-spacing="1.5">CORE SKILLS</text>
  </g>

  <path d="M20 62 L20 20 L62 20" stroke="#30363d" stroke-width="1.5" fill="none" opacity="0.5"/>
  <path d="M840 62 L840 20 L798 20" stroke="#30363d" stroke-width="1.5" fill="none" opacity="0.5"/>
  <path d="M20 268 L20 310 L62 310" stroke="#30363d" stroke-width="1.5" fill="none" opacity="0.5"/>
  <path d="M840 268 L840 310 L798 310" stroke="#30363d" stroke-width="1.5" fill="none" opacity="0.5"/>

  <circle cx="340" cy="12" r="1.5" fill="#58a6ff" opacity="0.3"><animate attributeName="opacity" values="0.1;0.6;0.1" dur="4s" repeatCount="indefinite"/></circle>
  <circle cx="500" cy="9"  r="2.0" fill="#00f2fe" opacity="0.2"><animate attributeName="opacity" values="0.1;0.8;0.1" dur="3s" repeatCount="indefinite"/></circle>
  <circle cx="780" cy="10" r="1.5" fill="#58a6ff" opacity="0.4"><animate attributeName="opacity" values="0.2;0.9;0.2" dur="2.5s" repeatCount="indefinite"/></circle>
  <circle cx="16"  cy="160" r="1.5" fill="#00f2fe" opacity="0.2"><animate attributeName="opacity" values="0.1;0.5;0.1" dur="5s" repeatCount="indefinite"/></circle>

</svg>
